# xmcd
#
# Track frame offsets: 
#        150
#        7593
#        18302
#        63937
#        84633
#        124155
#        159035
#        185533
#        228401
#
# Disc length: 3730 seconds
#
# Revision: 0
# Processed by: cddbd v1.5.2PL0 Copyright (c) Steve Scherf et al.
# Submitted via: ExactAudioCopy v1.3
#
DISCID=5b0e9009
DTITLE=Junior Wells - The Blues Is Alright - Live - CD1
DYEAR=2015
DGENRE=Blues
TTITLE0=1st Set Intro
TTITLE1=Cissy Strut (cut, power outage)
TTITLE2=Cissy Strut (reprise)
TTITLE3=Turning Point
TTITLE4=Broke And Hungry
TTITLE5=Keep Your Hands Out Of My Pockets
TTITLE6=Got My Mojo Workin'
TTITLE7=Little Red Rooster
TTITLE8=Hey Hey The Blues Is Alright
EXTD=
EXTT0=
EXTT1=
EXTT2=
EXTT3=
EXTT4=
EXTT5=
EXTT6=
EXTT7=
EXTT8=
PLAYORDER=
